<?xml version="1.0" standalone="no"?><!DOCTYPE svg PUBLIC "-//W3C//DTD SVG 1.1//EN" "http://www.w3.org/Graphics/SVG/1.1/DTD/svg11.dtd"><svg t="1693796330646" class="icon" viewBox="0 0 1024 1024" version="1.1" xmlns="http://www.w3.org/2000/svg" p-id="1516" xmlns:xlink="http://www.w3.org/1999/xlink" width="200" height="200"><path d="M514.6112 55.8592A458.24 458.24 0 1 0 972.8 514.048a458.24 458.24 0 0 0-458.1888-458.1888zM264.3968 455.936a72.8576 72.8576 0 0 1 102.8096 0 72.704 72.704 0 1 1-102.8096 0z m91.3408 245.76a25.6 25.6 0 1 1-36.1984-36.096L670.72 314.4704a25.6 25.6 0 0 1 36.1984 36.1984zM762.88 562.8416a72.704 72.704 0 1 1 0-102.8096 72.0384 72.0384 0 0 1 0 102.8096z"  p-id="1517"></path><path d="M331.008 522.5984a21.504 21.504 0 1 0-30.4128 0 21.504 21.504 0 0 0 30.4128 0zM711.2704 489.9328a21.504 21.504 0 1 0 15.36 6.2976 21.4016 21.4016 0 0 0-15.36-6.2976z" p-id="1518"></path></svg>