<?xml version="1.0" standalone="no"?><!DOCTYPE svg PUBLIC "-//W3C//DTD SVG 1.1//EN" "http://www.w3.org/Graphics/SVG/1.1/DTD/svg11.dtd"><svg t="1693796216394" class="icon" viewBox="0 0 1024 1024" version="1.1" xmlns="http://www.w3.org/2000/svg" p-id="1355" xmlns:xlink="http://www.w3.org/1999/xlink" width="200" height="200"><path d="M711.1168 78.6432H675.84v161.5872a61.44 61.44 0 0 0 61.44 61.44h166.6048V271.36a36.864 36.864 0 0 0-10.8032-26.112L737.28 89.4464a36.9664 36.9664 0 0 0-26.1632-10.8032z" p-id="1356"></path><path d="M737.28 358.4a118.3744 118.3744 0 0 1-118.2208-118.272V81.1008H234.1888a88.7296 88.7296 0 0 0-88.7296 88.6784v684.3392a88.7296 88.7296 0 0 0 88.7296 88.6784h578.56a88.6784 88.6784 0 0 0 88.6784-88.6784V358.4z m-384-39.7312h211.3536a29.5424 29.5424 0 0 1 0 59.0848H353.28a29.5424 29.5424 0 0 1 0-59.0848z m340.8896 425.984H353.28a29.5424 29.5424 0 0 1 0-59.0848h340.8896a29.5424 29.5424 0 1 1 0 59.0848z m0-183.4496H353.28a29.5424 29.5424 0 1 1 0-59.0848h340.8896a29.5424 29.5424 0 1 1 0 59.0848z"  p-id="1357"></path></svg>