<svg width="48" height="48" viewBox="0 0 48 48"  xmlns="http://www.w3.org/2000/svg">
<path d="M17.5332 11.6661L7.87093 19.3176L6.16331 19.4918C3.17498 19.7822 0.0870344 20.5662 0.00165346 21.0454C-0.0268069 21.176 0.314717 21.6407 0.827003 22.1633C1.66658 23.0345 2.54885 24.225 2.98999 25.1252C3.11806 25.3575 3.48804 26.3448 3.81534 27.3031C4.52685 29.3503 4.99644 30.3666 6.03524 31.9782C7.47249 34.2432 9.67817 36.1597 11.8981 37.0889L12.8515 37.4955L12.9226 40.7477L12.9938 44H27.2951H41.5964L41.6391 32.5009L41.6676 20.9873L44.8409 20.9583C47.8862 20.9147 48 20.9002 48 20.6243C48 20.4211 45.1824 18.098 37.6974 12.1742C32.0338 7.67332 27.3663 4 27.3093 4C27.2524 4 22.8553 7.44102 17.5332 11.6661ZM36.2886 12C41.2407 15.9347 45.5809 19.3757 45.9366 19.6661L46.577 20.1887L43.8021 20.2613L41.0272 20.3339L40.9845 31.833L40.9561 43.3466H27.2951H13.6342V40.5154V37.6842L14.246 37.7858C14.5733 37.8584 15.8683 37.902 17.1205 37.902C19.2124 37.8875 19.5397 37.8584 21.2331 37.4083C23.4103 36.8421 23.5241 36.8711 24.6483 38.1488C25.5306 39.1361 26.1709 40.2976 26.5125 41.5318C26.8255 42.6062 26.9394 42.7659 27.4659 42.7659C27.9355 42.7659 28.8604 41.9528 28.8604 41.5463C28.8604 41.2995 27.7078 39.5136 26.4271 37.8004C25.9575 37.1906 25.5875 36.6388 25.5875 36.5662C25.5875 36.5082 26.0855 36.2759 26.6974 36.0581C30.07 34.8385 32.8449 32.2396 33.9833 29.2632C35.0079 26.5191 35.0932 23.5862 34.2537 19.8984C33.8837 18.2722 33.8694 16.5009 34.1967 14.9038C34.3675 14.1343 34.4102 13.6697 34.3106 13.5681C34.1256 13.3793 32.0338 14.0036 30.1411 14.8312C27.224 16.0799 24.1787 18.1996 21.788 20.6243L20.3366 22.0907L19.6535 21.6116C18.0028 20.4646 14.7014 19.608 11.1866 19.4338C10.1051 19.3902 9.2228 19.3031 9.2228 19.2595C9.23703 19.2015 27.0817 4.95826 27.2524 4.88566C27.2666 4.87114 31.3365 8.07985 36.2886 12ZM33.4995 14.7005C33.286 15.2523 33.1152 17.3285 33.2149 18.1561C33.2575 18.6352 33.4568 19.7096 33.6418 20.5517C34.9082 26.1851 33.5279 30.8312 29.7854 33.5463C28.7324 34.3013 26.9394 35.2305 25.8152 35.5935L24.9756 35.8548L24.1218 34.853C23.638 34.2868 22.4284 32.98 21.4323 31.9492C20.4362 30.9038 19.6108 29.9601 19.6108 29.8584C19.6108 29.5826 21.1477 30.8748 23.0972 32.7768C24.7764 34.4319 25.189 34.7078 25.3456 34.3013C25.5021 33.8802 24.9329 29.7132 24.6483 29.2486C24.4633 28.9292 26.1282 24.559 27.1813 22.5844C27.4943 21.9891 28.1774 20.8857 28.6754 20.1307C29.5292 18.853 29.7 18.3884 29.3585 18.2722C29.1593 18.2142 29.0027 18.3448 28.2628 19.245C27.2951 20.4211 25.5733 23.1652 24.6625 24.9655C24.2356 25.8512 23.8514 26.5917 23.8087 26.6207C23.7803 26.6497 23.5526 26.2868 23.3249 25.7931C23.083 25.314 22.4711 24.3848 21.9588 23.7459L21.0196 22.5699L21.475 21.9891C22.0299 21.2777 23.8087 19.6515 25.189 18.6207C27.2951 17.0381 29.9846 15.6007 32.361 14.7586C33.4141 14.3811 33.6133 14.3811 33.4995 14.7005ZM14.0611 20.4646C17.2628 21.0309 18.9135 21.7568 20.5642 23.3539C22.6276 25.3575 23.8372 28 24.4491 31.8475C24.5487 32.4283 24.5771 32.951 24.5345 32.9946C24.4918 33.0526 23.8229 32.4719 23.0688 31.7169C19.312 28.0145 13.7622 24.4719 9.09473 22.8167C7.99901 22.4247 7.5721 22.3376 7.4298 22.4537C7.11674 22.7151 7.35865 22.9764 8.19823 23.3249C9.67817 23.9201 12.2965 25.3285 13.7907 26.3448C17.6328 28.9583 21.9161 33.1107 25.2317 37.4664L25.7867 38.1924L24.9329 37.3793C23.5526 36.029 23.5668 36.0436 21.105 36.6824C18.8566 37.2777 16.1529 37.4083 14.3457 37.0454C9.72086 36.0871 6.43369 32.6897 4.38454 26.7223C3.72996 24.7913 2.89038 23.2958 1.79465 22.0762C1.09738 21.2922 1.09738 21.2777 1.42467 21.147C1.97965 20.9292 3.80111 20.5517 5.3095 20.3339C7.17366 20.0581 12.1684 20.1452 14.0611 20.4646ZM18.757 29.1325C18.757 29.2051 18.4724 29.0309 18.1167 28.726C17.7609 28.4356 17.4763 28.1597 17.4763 28.1307C17.4763 28.1162 17.7609 28.2904 18.1167 28.5372C18.4724 28.784 18.757 29.0454 18.757 29.1325ZM27.1386 40.1089C27.6224 40.7913 28.0066 41.4446 28.0066 41.5463C28.0066 41.6479 27.8785 41.8076 27.7362 41.8947C27.4801 42.0254 27.4374 41.9528 27.2382 41.2559C27.1101 40.8203 26.8255 40.1089 26.5978 39.6588C26.3559 39.2087 26.1994 38.8457 26.2278 38.8457C26.2563 38.8457 26.669 39.412 27.1386 40.1089Z" />
</svg>
