<svg width="48" height="48" viewBox="0 0 48 48" xmlns="http://www.w3.org/2000/svg">
<g clip-path="url(#clip0_1_2)">
<path d="M22.3714 43.0286C22.3714 43.0286 22.3753 43.5842 23.2205 43.8553C23.8247 42.469 24.2735 41.0158 24.5367 39.5305C25.1585 35.9643 24.6514 32.1894 22.8591 29.0886C21.9508 27.5508 20.7346 26.1957 19.2687 25.1397C17.8281 24.0294 16.1242 23.4164 14.3222 22.5732C12.5581 21.7514 10.8386 20.8188 9.20371 19.7473C7.60571 18.6477 5.97177 17.4625 4.88571 15.8286C6.30497 17.1381 8.04091 17.9745 9.72829 18.8322C11.437 19.6638 13.1905 20.3991 14.9594 21.1005C16.6827 21.764 18.6606 22.4401 20.3266 23.6427C22.0207 24.79 23.473 26.3083 24.5707 28.054C25.3799 29.3363 25.9628 30.7293 26.3504 32.1729C31.941 22.5499 20.3829 15.8227 12.6571 14.8571C4.88571 13.8857 1 10 1 10C1 10 1.23411 22.377 11.6857 32.3429C13.7432 34.3042 16.5429 36.2286 22.3714 36.2286C23.3429 36.2286 22.3714 43.0286 22.3714 43.0286Z" />
<path d="M36.9429 29.4286C32.3888 28.2901 29.2394 29.0954 26.602 32.3759C25.7403 33.4483 25.2857 34.7947 25.2857 36.1713C25.2857 36.1897 25.2857 36.2091 25.2857 36.2286C26.2571 34.2857 27.5433 33.5416 27.9698 33.2881C29.6552 32.27 31.5495 31.8533 33.3816 31.6891C35.2186 31.5288 37.0604 31.6454 38.8148 31.9397C39.693 32.0611 40.543 32.2467 41.3774 32.2234C41.7913 32.203 42.2012 32.1418 42.6034 32.0038C43.0055 31.863 43.3737 31.625 43.7429 31.3714C43.2212 32.0864 42.3974 32.6644 41.459 32.848C40.5323 33.0335 39.6094 33.0374 38.7283 33.0238C36.9642 33.0005 35.2516 33.0267 33.5739 33.2813C31.9109 33.5552 30.3022 34.0584 28.9674 34.9074C28.2962 35.3271 27.7133 35.8517 27.2412 36.4442C24.3143 40.1143 24.3143 44 24.3143 44C24.3143 44 25.2857 44 26.0988 43.2025L26.2571 43.0286C26.2571 43.0286 26.2601 41.9639 27.4403 40.2309C28.7421 40.8963 35.9335 43.8514 44.7143 33.3143L47.6286 29.2217C47.6286 29.2217 44.7143 31.3714 36.9429 29.4286Z" />
</g>
<defs>
<clipPath id="clip0_1_2">
<rect width="48" height="48" fill="white"/>
</clipPath>
</defs>
</svg>
