<svg width="48" height="48" viewBox="0 0 48 48"  xmlns="http://www.w3.org/2000/svg">
<path fill-rule="evenodd" clip-rule="evenodd" d="M40.6659 18.2115L47.6333 23.8001C48.0583 24.1408 48.125 24.7491 47.775 25.1709L45.6497 27.6854C45.2997 28.0991 44.6663 28.1559 44.2413 27.8152L24.6393 12.1037C24.2642 11.8117 23.7308 11.8117 23.3641 12.1037L3.76211 27.8152C3.33707 28.1559 2.70367 28.0991 2.35363 27.6854L0.228416 25.1709C-0.12162 24.7573 -0.0632807 24.1408 0.361763 23.8001L21.4556 6.88818C22.9307 5.70394 25.0643 5.70394 26.5394 6.88818L33.9985 12.8662V6.97741C33.9985 6.44206 34.4486 6.00406 34.9986 6.00406H39.6658C40.2158 6.00406 40.6659 6.44206 40.6659 6.97741V18.2115ZM40.6659 40.3633V28.7399C40.6659 28.4479 40.5325 28.1721 40.3075 27.9855L24.6393 15.4293C24.2642 15.1373 23.7308 15.1373 23.3641 15.4293L7.69585 27.9855C7.46249 28.1721 7.32914 28.4479 7.32914 28.7399V40.3633C7.32914 41.4421 8.2209 42.31 9.32935 42.31H38.6657C39.7741 42.31 40.6659 41.4421 40.6659 40.3633ZM21.9953 21.2806L21.9952 21.2806C21.9085 21.2957 21.822 21.3107 21.7358 21.3247C19.5694 21.7667 17.5937 22.8426 16.0734 24.4083C15.359 25.1707 14.7527 26.0227 14.2705 26.9416C13.8112 27.8619 13.4873 28.8405 13.3083 29.8487C13.2382 30.5546 13.214 31.264 13.2357 31.9729C13.2249 32.4778 13.2635 32.9826 13.3509 33.4804C13.8576 36.0012 15.2932 38.255 17.3876 39.8178C18.2029 40.4251 19.104 40.9147 20.0631 41.2714C21.0664 41.6626 22.132 41.8811 23.2122 41.9172C23.3301 41.9177 23.4481 41.9189 23.5664 41.92C24.3171 41.9273 25.0736 41.9346 25.8109 41.7947C28.1215 41.3759 30.2253 40.2262 31.7955 38.5242C31.8438 38.4602 31.8769 38.3865 31.8923 38.3084C31.9077 38.2304 31.9051 38.1501 31.8847 38.0731C31.8643 37.9962 31.8266 37.9247 31.7742 37.8637C31.7219 37.8027 31.6563 37.7539 31.5821 37.7206C31.2152 37.5628 30.8247 37.7704 30.5346 37.9781C29.7127 38.5612 28.792 38.999 27.8143 39.2717C27.1317 39.4887 26.42 39.6069 25.7021 39.6227H24.2321C23.6708 39.5885 23.1138 39.5051 22.5679 39.3735C22.3371 39.3372 22.1304 39.2136 21.9929 39.0296C21.8554 38.8456 21.7983 38.6162 21.8339 38.3913C21.874 38.2564 21.9427 38.1313 22.0357 38.0239C22.1287 37.9166 22.2439 37.8295 22.3737 37.7684C22.8972 37.5287 23.4901 37.4737 24.0507 37.6126C24.1673 37.6258 24.2847 37.644 24.4024 37.6623L24.4025 37.6624C24.7674 37.7191 25.136 37.7763 25.4972 37.6853C25.5696 37.6695 25.6351 37.6322 25.6848 37.5787C25.7344 37.5251 25.7658 37.4579 25.7746 37.3863C25.828 37.1849 25.83 36.974 25.7806 36.7717C25.7311 36.5694 25.6317 36.3819 25.4908 36.2255C25.0705 35.7853 24.4497 35.6234 23.8651 35.5133C23.2454 35.4082 22.6143 35.3817 21.9876 35.4344C21.224 35.5096 20.483 35.699 19.7422 35.8884L19.7422 35.8884C19.2763 36.0075 18.8104 36.1266 18.3392 36.2172L18.3074 36.2212C18.0281 36.2564 17.6748 36.3009 17.4858 36.0449C16.6282 34.9349 16.0212 33.6613 15.7042 32.3072C15.5446 31.5965 15.5491 30.8612 15.5535 30.141L15.5535 30.1407C15.5542 30.0235 15.5549 29.9067 15.5549 29.7905C15.5704 29.2903 15.6376 28.7929 15.7555 28.3058C16.1996 26.5 17.178 24.8605 18.5696 23.5902C19.6712 22.6041 20.9943 21.8824 22.4335 21.4825C22.5328 21.4562 22.6349 21.4359 22.7373 21.4155C22.9823 21.3666 23.2289 21.3174 23.4426 21.1856C22.9569 21.1136 22.4728 21.1976 21.9953 21.2806ZM28.299 37.2573L28.2991 37.2573C28.6025 37.0558 28.9076 36.8531 29.297 36.8588C29.5253 36.8588 29.8326 36.8588 29.9371 37.1039C30.0095 37.2307 29.8934 37.3516 29.8066 37.4422L29.7984 37.4506C28.8727 38.2441 27.7673 38.8133 26.5725 39.1118C26.1296 39.2523 25.6633 39.3094 25.1985 39.28C24.98 39.2461 24.7608 39.2426 24.5422 39.2391C24.4 39.2368 24.2581 39.2346 24.1168 39.224L23.0649 39.0516C23.0649 39.0322 23.0555 38.9999 23.0472 38.9719C23.0454 38.9657 23.0436 38.9596 23.042 38.954C23.0401 38.947 23.0384 38.9407 23.0372 38.9353C23.6413 38.9549 24.2449 38.8849 24.8272 38.7277C25.9007 38.4748 26.9286 38.0652 27.8761 37.5129C28.022 37.4413 28.1603 37.3494 28.299 37.2573ZM34.3925 32.3109C34.3921 32.4057 34.3917 32.5005 34.3922 32.5959C34.4026 33.7797 34.1463 34.9513 33.6411 36.0283C33.496 36.388 33.3164 36.7327 33.1051 37.058C32.9154 37.3503 32.7001 37.6269 32.4613 37.8847C32.3361 37.675 32.1744 37.4881 31.9834 37.3323C31.9005 37.2861 31.8159 37.2429 31.7298 37.2028C31.6471 37.1642 31.563 37.1285 31.4777 37.0956C31.4989 37.0143 31.5298 36.9377 31.5669 36.8641C31.6273 36.7442 31.7039 36.632 31.7805 36.5197L31.7806 36.5197C31.8482 36.4206 31.9159 36.3215 31.9725 36.2169L31.9812 36.2006C32.259 35.7307 32.4836 35.2329 32.6512 34.7159C32.8601 34.1129 32.9766 33.4832 32.9968 32.8471C32.9968 32.7455 32.9977 32.6437 32.9987 32.542L32.9987 32.5406C33.0018 32.2082 33.0048 31.8755 32.9755 31.5452C32.8037 30.2141 32.2949 28.9455 31.4948 27.8532C31.3306 27.6371 31.1463 27.4363 30.9443 27.2531C30.8045 27.1197 30.6817 26.9716 30.559 26.8236L30.559 26.8236C30.3972 26.6285 30.2357 26.4336 30.0354 26.273C29.041 25.4562 27.858 24.8862 26.5876 24.6118C26.1174 24.5409 25.6417 24.5111 25.1663 24.5224C25.0917 24.5242 25.0172 24.527 24.9426 24.5308C24.9031 24.5313 24.8636 24.5323 24.8242 24.5337C24.8018 24.5345 24.7794 24.5354 24.757 24.5365C24.2353 24.5616 23.7207 24.6637 23.2309 24.839C23.1384 24.8721 23.0469 24.9078 22.9563 24.9461C22.0252 25.2941 21.2673 25.9774 20.8398 26.8544C20.7903 26.9742 20.7475 27.0962 20.7115 27.2199C20.6444 27.4502 20.6011 27.6865 20.582 27.9252C20.5807 27.9412 20.5795 27.9572 20.5785 27.9732C20.5724 28.0645 20.5699 28.156 20.571 28.2477C20.5876 28.6075 20.6603 28.9581 20.78 29.2924L20.7809 29.2949C21.1776 30.4007 22.0884 31.3271 23.1838 31.8091L23.1976 31.8151C23.2526 31.8391 23.308 31.8619 23.3638 31.8836C23.9939 32.1126 24.6628 32.2232 25.3352 32.2096C25.138 32.1348 24.9355 32.0713 24.733 32.0079L24.733 32.0079C24.3092 31.8752 23.8856 31.7425 23.5109 31.5052L23.5032 31.5003C23.4785 31.4845 23.4541 31.4684 23.43 31.4517C22.5501 30.8892 21.909 30.0358 21.625 29.0492C21.548 28.7848 21.5158 28.5102 21.5293 28.2364L21.5301 28.2213L21.5311 28.2033C21.5337 28.1627 21.5372 28.1221 21.5418 28.0816L21.5455 28.0587C21.5748 27.8781 21.6055 27.6898 21.6672 27.5148C21.7197 27.3658 21.7948 27.2265 21.9109 27.1098C22.0776 27.3652 22.2892 27.5902 22.536 27.7743C22.5642 27.7897 22.5927 27.8047 22.6213 27.8193C23.0934 28.0609 23.6152 28.1975 24.149 28.2186C24.3648 28.2484 24.5827 28.2514 24.8003 28.2543H24.8003C25.1141 28.2585 25.4272 28.2628 25.7321 28.3474C26.2578 28.4559 26.7302 28.7348 27.0719 29.1385C27.4052 29.5755 27.5736 30.0888 27.7416 30.6011L27.7416 30.6012C27.9298 31.1746 28.1175 31.7469 28.5356 32.2096C28.6619 32.3513 28.8096 32.4616 28.9699 32.5522C29.1321 32.6438 29.3071 32.7153 29.4861 32.7787L29.5069 32.786C29.6124 32.8229 29.719 32.8572 29.8251 32.8913C29.9284 32.9244 30.031 32.9574 30.1314 32.9925C30.0261 33.1117 29.8997 33.2116 29.7581 33.2873C29.492 33.4206 29.2184 33.5387 28.9389 33.6412C28.6094 33.7619 28.2715 33.8609 27.9275 33.9373C27.3278 34.0854 26.7132 34.1689 26.0948 34.1864C25.4871 34.2128 24.8782 34.1808 24.277 34.0909C22.7794 33.8771 21.3881 33.2128 20.2979 32.1909C19.7829 31.683 19.3914 31.0693 19.1522 30.3948C18.9784 29.8732 18.8716 29.3327 18.8343 28.7855C18.8271 28.1802 18.9356 27.5789 19.1543 27.0122C19.4189 26.2377 19.9928 25.6106 20.6158 25.0832C21.0273 24.768 21.4721 24.4965 21.9429 24.2733C22.2571 24.1242 22.5809 23.9966 22.9117 23.8912C23.5083 23.701 24.1281 23.5829 24.757 23.5403C24.802 23.5403 24.8469 23.5393 24.8918 23.5375L24.9297 23.5358C24.9909 23.5328 25.0521 23.5284 25.1133 23.5234C25.1722 23.5187 25.2311 23.5133 25.2899 23.5079L25.29 23.5079C25.4486 23.4934 25.6072 23.4789 25.7662 23.476C27.9261 23.5971 29.9728 24.4562 31.5457 25.9019C33.1186 27.3477 34.1168 29.2873 34.3644 31.379C34.3954 31.6966 34.394 32.0031 34.3925 32.3109V32.3109ZM20.9912 31.4702C20.8474 31.3274 20.7161 31.1744 20.5981 31.0128C20.7223 31.1743 20.8556 31.3287 20.9967 31.4753L20.9912 31.4702ZM26.0514 33.1874C25.8206 33.1974 25.5896 33.198 25.359 33.1892L25.6901 31.2747C25.4729 31.1923 25.2018 31.1068 24.9753 31.0355L24.9752 31.0354C24.8598 30.9991 24.756 30.9664 24.6768 30.9395C24.3828 30.84 24.1689 30.7465 23.9973 30.6282L23.9831 30.6185L23.9686 30.6092C23.3335 30.2032 22.8652 29.6046 22.631 28.9163C23.0879 29.09 23.5709 29.1913 24.0619 29.2157C24.3303 29.2488 24.6034 29.2522 24.8076 29.2547H24.8077L24.8088 29.2547C24.8506 29.2552 24.8896 29.2557 24.925 29.2563C25.1791 29.2613 25.3358 29.2752 25.4647 29.311L25.497 29.3199L25.5299 29.3267C25.8316 29.389 26.0987 29.5455 26.2925 29.7658C26.5111 30.0619 26.6304 30.4241 26.8179 30.9933L26.8179 30.9933L26.8219 31.0056C26.9964 31.5353 27.2382 32.264 27.7913 32.8776C27.8076 32.8957 27.824 32.9135 27.8405 32.9309C27.7974 32.9414 27.7541 32.9514 27.7108 32.961L27.6992 32.9636L27.6877 32.9664C27.1574 33.0974 26.6137 33.1713 26.0665 33.1868L26.0589 33.1871L26.0514 33.1874Z" />
</svg>
