<?xml version="1.0" standalone="no"?><!DOCTYPE svg PUBLIC "-//W3C//DTD SVG 1.1//EN" "http://www.w3.org/Graphics/SVG/1.1/DTD/svg11.dtd"><svg t="1693796124951" class="icon" viewBox="0 0 1024 1024" version="1.1" xmlns="http://www.w3.org/2000/svg" p-id="1195" xmlns:xlink="http://www.w3.org/1999/xlink" width="200" height="200"><path d="M935.0656 820.2752L886.8352 200.192a94.464 94.464 0 0 0-94.1568-87.04H236.3904a94.464 94.464 0 0 0-94.1568 87.04l-48.2816 620.0832a94.464 94.464 0 0 0 94.1568 101.7856h652.8a94.464 94.464 0 0 0 94.1568-101.7856z m-196.096-506.5728a224.4608 224.4608 0 1 1-448.8704 0v-40.96a26.2144 26.2144 0 0 1 52.4288 0v40.96a172.032 172.032 0 0 0 344.0128 0v-40.96a26.2144 26.2144 0 0 1 52.4288 0z" p-id="1196"></path></svg>